<?xml version="1.0" standalone="no"?>
<!DOCTYPE svg PUBLIC "-//W3C//DTD SVG 20010904//EN"
 "http://www.w3.org/TR/2001/REC-SVG-20010904/DTD/svg10.dtd">
<svg version="1.0" xmlns="http://www.w3.org/2000/svg"
 width="700.000000pt" height="700.000000pt" viewBox="0 0 700.000000 700.000000"
 preserveAspectRatio="xMidYMid meet">
<metadata>
Created by potrace 1.11, written by Peter Selinger 2001-2013
</metadata>
<g transform="translate(0.000000,700.000000) scale(0.100000,-0.100000)"
fill="#000000" stroke="none">
<path d="M3467 6564 c-1 -1 -79 -4 -174 -8 -95 -3 -178 -8 -185 -10 -7 -3 -45
-7 -84 -11 -39 -3 -80 -7 -90 -9 -11 -2 -41 -7 -69 -10 -121 -16 -372 -70
-535 -116 -289 -81 -652 -237 -888 -381 -39 -24 -80 -49 -90 -54 -9 -6 -53
-35 -97 -64 -227 -154 -431 -334 -598 -525 -34 -39 -64 -73 -67 -76 -41 -41
-168 -221 -236 -335 -191 -318 -301 -642 -341 -1002 -16 -137 -9 -434 12 -591
15 -107 56 -274 101 -405 114 -333 296 -637 561 -935 18 -21 33 -40 33 -44 0
-14 -71 -171 -120 -265 -73 -141 -243 -413 -270 -433 -4 -3 -11 -12 -16 -21
-12 -22 -55 -76 -144 -182 -118 -139 -138 -168 -156 -225 -17 -57 -15 -171 4
-208 5 -11 15 -31 22 -45 30 -65 116 -134 199 -158 47 -14 170 -16 296 -6 82
6 281 31 325 40 14 2 50 10 80 16 75 14 268 65 305 79 17 7 39 14 49 16 21 4
144 48 191 69 17 7 59 25 95 40 163 68 395 195 563 307 l87 59 43 -12 c23 -7
47 -14 52 -16 6 -2 79 -21 164 -43 171 -43 368 -79 521 -95 36 -4 79 -9 95
-11 141 -17 460 -22 656 -11 553 33 1110 180 1584 420 688 348 1207 877 1468
1497 75 179 147 436 162 583 3 23 9 74 14 112 9 72 7 476 -2 492 -3 5 -9 36
-12 68 -15 128 -68 335 -130 500 -41 112 -159 353 -205 420 -16 24 -30 46 -30
49 0 11 -142 205 -207 284 -494 597 -1275 1031 -2138 1186 -16 3 -41 8 -55 11
-14 3 -46 7 -71 10 -25 3 -56 7 -68 10 -12 2 -57 7 -99 10 -42 4 -79 8 -82 10
-5 3 -115 9 -368 19 -29 1 -54 1 -55 0z m308 -668 c44 -3 96 -8 115 -11 19 -2
58 -7 85 -10 123 -14 317 -53 476 -96 285 -76 568 -197 824 -352 288 -174 574
-443 756 -711 74 -111 182 -328 220 -444 35 -106 41 -134 73 -298 22 -114 23
-389 2 -500 -3 -12 -7 -38 -10 -58 -11 -67 -27 -130 -58 -226 -28 -85 -42
-121 -96 -240 -22 -47 -108 -194 -150 -255 -261 -378 -700 -714 -1187 -910
-298 -120 -532 -179 -907 -230 -188 -26 -683 -26 -817 0 -11 2 -46 6 -78 10
-198 21 -424 77 -808 199 -44 15 -86 26 -93 26 -7 0 -88 -53 -180 -118 -155
-110 -306 -207 -377 -244 -158 -81 -223 -112 -300 -143 -122 -50 -197 -76
-193 -67 2 4 35 66 75 137 91 164 144 283 250 563 95 251 93 218 18 297 -358
376 -450 493 -566 725 -89 178 -128 295 -175 524 -21 103 -20 446 1 509 2 7 7
30 10 51 14 98 62 255 118 386 280 659 1007 1205 1866 1400 233 53 356 71 571
85 58 4 106 8 107 9 5 5 353 -2 428 -8z"/>
</g>
</svg>
